# xmcd
# 
# Track frame offsets:
#     150
#     16915
#     34812
#     50535
#     68072
#     79122
#     96035
#     116385
#     124475
#     139307
#     155302
#     184757
#     202442
#     233377
# 
# Disc length: 3502
# 
# Revision: 25
# Processed by: cddbd v1.5.2PL0 Copyright (c) Steve Scherf et al.
# Submitted via: BonkEnc v1.0.6
# 
DISCID=bc0dac0e
DTITLE=Janis Joplin - Pearl
DYEAR=1971
DGENRE=Blues Rock
TTITLE0=Move Over
TTITLE1=Cry Baby
TTITLE2=A Woman Left Lonely
TTITLE3=Half Moon
TTITLE4=Buried Alive In The Blues
TTITLE5=My Baby
TTITLE6=Me And Bobby McGee
TTITLE7=Mercedes Benz
TTITLE8=Trust Me
TTITLE9=Get It While You Can
TTITLE10=Tell Mama (Live)
TTITLE11=Little Girl Blue (Live)
TTITLE12=Try (Just A Little Bit Harder) (Live)
TTITLE13=Cry Baby (Live)
EXTD=YEAR: 1971
EXTT0=
EXTT1=
EXTT2=
EXTT3=
EXTT4=
EXTT5=
EXTT6=
EXTT7=
EXTT8=
EXTT9=
EXTT10=
EXTT11=
EXTT12=
EXTT13=
PLAYORDER=
